# xmcd
#
# Track frame offsets: 
#        175
#        22050
#        34380
#        55170
#        66902
#        99315
#        122772
#        137102
#        156230
#        172057
#        185855
#        201510
#
# Disc length: 2971 seconds
#
# Revision: 0
# Processed by: cddbd v1.4PL0 Copyright (c) Steve Scherf et al.
# Submitted via: ExactAudioCopy v0.90b4
#
DISCID=ba0b990c
DTITLE=Nightcrowd Bluesband - I Have My Fun
DYEAR=1993
DGENRE=Blues
TTITLE0=Standing At Your Backdoor
TTITLE1=No More Reason To Cry
TTITLE2=Mean Old Woman
TTITLE3=No More Doggin'
TTITLE4=I Have My Fun
TTITLE5=Telephone Blues
TTITLE6=Checkin' On My Baby
TTITLE7=I Need My Baby
TTITLE8=Tell Me
TTITLE9=Whoo's Been Talking
TTITLE10=So What
TTITLE11=Tobacco Road
EXTD=
EXTT0=
EXTT1=
EXTT2=
EXTT3=
EXTT4=
EXTT5=
EXTT6=
EXTT7=
EXTT8=
EXTT9=
EXTT10=
EXTT11=
PLAYORDER=
